<svg aria-hidden="true" style="position: absolute; width: 0; height: 0; overflow: hidden;" version="1.1" xmlns="http://www.w3.org/2000/svg" xmlns:xlink="http://www.w3.org/1999/xlink">
<defs>
<symbol id="icon-qualified-teachers" viewBox="0 0 37 32">
<path d="M17.97 0.654c0.3-0.253 0.463-0.348 0.595-0.348 0.193 0 0.231 0.030 1.824 1.398l0.816 0.701 1.169-0.266c2.119-0.482 2.021-0.466 2.191-0.354 0.114 0.075 0.291 0.456 0.74 1.589l0.59 1.491 1.48 0.385c1.507 0.391 1.704 0.464 1.811 0.664 0.051 0.095-0.082 1.709-0.258 3.137-0.018 0.147 0.117 0.292 1.19 1.271 1.049 0.957 1.211 1.129 1.211 1.284 0 0.13-0.249 0.553-0.893 1.519l-0.893 1.34 0.527 1.445c0.29 0.795 0.526 1.534 0.526 1.643 0 0.122-0.048 0.242-0.125 0.311-0.124 0.112-0.098 0.14 3.053 3.293l3.178 3.18v0.264c0 0.29-0.126 0.552-0.328 0.683-0.073 0.047-1.303 0.262-2.787 0.486l-2.657 0.401-0.387 2.593c-0.213 1.426-0.426 2.677-0.474 2.779-0.169 0.361-0.729 0.516-1.064 0.294-0.083-0.055-1.655-1.6-3.494-3.434l-3.343-3.334-0.104 0.148c-0.191 0.273-0.324 0.369-0.509 0.369-0.112 0-0.73-0.273-1.588-0.703l-1.404-0.703-1.404 0.703c-0.794 0.398-1.479 0.703-1.576 0.703-0.221 0-0.305-0.070-0.635-0.531l-0.271-0.378-3.386 3.39c-1.862 1.864-3.466 3.432-3.564 3.484-0.372 0.197-0.864 0.065-1.038-0.28-0.044-0.087-0.255-1.335-0.467-2.772-0.359-2.422-0.396-2.615-0.512-2.641-0.069-0.015-1.25-0.195-2.625-0.399s-2.577-0.411-2.671-0.46c-0.222-0.115-0.356-0.381-0.356-0.708v-0.261l3.217-3.219c1.769-1.771 3.225-3.27 3.234-3.332s0.255-0.769 0.544-1.57l0.527-1.457-0.891-1.324c-0.674-1.002-0.891-1.37-0.891-1.514 0-0.17 0.132-0.311 1.209-1.294l1.209-1.104-0.169-1.571c-0.18-1.674-0.172-1.833 0.092-1.95 0.073-0.033 0.798-0.232 1.611-0.444l1.477-0.385 0.599-1.502c0.499-1.252 0.626-1.517 0.763-1.592 0.152-0.083 0.276-0.064 1.679 0.259 0.834 0.192 1.553 0.349 1.599 0.349s0.444-0.31 0.886-0.69c0.441-0.379 0.988-0.846 1.215-1.038zM17.384 2.382c-0.966 0.826-1.174 0.977-1.34 0.976-0.108-0-0.785-0.138-1.505-0.305s-1.342-0.304-1.383-0.304c-0.041 0-0.327 0.631-0.636 1.401s-0.597 1.431-0.64 1.467c-0.043 0.036-0.721 0.232-1.506 0.437s-1.445 0.389-1.467 0.411c-0.022 0.022 0.030 0.688 0.116 1.48s0.139 1.507 0.118 1.589c-0.022 0.089-0.48 0.55-1.142 1.149-0.641 0.581-1.092 1.033-1.074 1.078 0.017 0.043 0.389 0.615 0.827 1.272 0.479 0.717 0.797 1.253 0.797 1.343 0 0.082-0.224 0.77-0.497 1.53s-0.486 1.391-0.473 1.403 0.587 0.33 1.276 0.705c0.689 0.375 1.303 0.732 1.365 0.792 0.090 0.087 0.155 0.414 0.32 1.593 0.114 0.816 0.217 1.492 0.229 1.504s0.706 0.039 1.543 0.060c1.276 0.032 1.54 0.054 1.635 0.137 0.063 0.054 0.486 0.621 0.941 1.259s0.834 1.169 0.841 1.179c0.008 0.010 0.621-0.285 1.363-0.657s1.405-0.675 1.473-0.675 0.73 0.304 1.473 0.675c0.742 0.371 1.356 0.667 1.363 0.657s0.395-0.555 0.861-1.21c0.466-0.655 0.887-1.221 0.935-1.258 0.055-0.042 0.665-0.082 1.615-0.106 0.84-0.022 1.536-0.049 1.548-0.060s0.114-0.688 0.229-1.505c0.166-1.179 0.232-1.507 0.321-1.594 0.062-0.060 0.676-0.417 1.365-0.793s1.263-0.693 1.276-0.706c0.013-0.013-0.2-0.638-0.473-1.39s-0.497-1.44-0.497-1.529c0-0.106 0.276-0.574 0.797-1.356 0.439-0.657 0.811-1.228 0.827-1.27 0.017-0.043-0.452-0.514-1.075-1.079-0.661-0.6-1.119-1.062-1.141-1.152-0.021-0.082 0.024-0.742 0.098-1.466s0.141-1.384 0.147-1.466c0.011-0.144-0.035-0.161-1.449-0.535-0.803-0.213-1.495-0.415-1.537-0.45s-0.329-0.694-0.638-1.465-0.593-1.401-0.632-1.401c-0.039 0-0.669 0.137-1.4 0.305s-1.41 0.305-1.508 0.305c-0.143 0-0.409-0.196-1.322-0.977-0.629-0.537-1.16-0.977-1.181-0.977s-0.553 0.44-1.181 0.977zM17.545 5.618c0.208-0.029 0.777-0.044 1.264-0.031 1.176 0.029 2.034 0.241 3.084 0.76 0.922 0.456 1.191 0.671 1.191 0.951 0 0.149-0.044 0.24-0.161 0.331-0.219 0.172-0.374 0.159-0.717-0.058-1.173-0.744-2.242-1.053-3.641-1.053-1.186 0-1.967 0.178-2.962 0.675-3.041 1.518-4.441 5.051-3.272 8.254 1.168 3.2 4.662 4.986 8.005 4.092 0.602-0.161 1.701-0.701 2.198-1.081 1.165-0.889 2.018-2.11 2.404-3.443 0.162-0.56 0.283-1.298 0.283-1.731 0-0.352 0.042-0.446 0.251-0.554 0.212-0.11 0.45-0.062 0.575 0.116 0.119 0.171 0.118 0.844-0.004 1.544-0.875 5.026-6.286 7.77-10.869 5.513-1.473-0.725-2.797-2.076-3.477-3.549-1.377-2.981-0.705-6.511 1.66-8.72 1.137-1.062 2.673-1.801 4.188-2.015zM18.058 8.739c0.296-0.156 0.693-0.161 0.987-0.010 0.304 0.155 0.312 0.167 0.829 1.146l0.445 0.843 0.97 0.17c1.083 0.19 1.335 0.303 1.515 0.684 0.122 0.256 0.137 0.65 0.036 0.914-0.038 0.099-0.376 0.491-0.75 0.871l-0.681 0.69 0.136 0.992c0.141 1.027 0.132 1.207-0.074 1.522-0.152 0.231-0.533 0.416-0.859 0.416-0.227 0-0.464-0.086-1.168-0.423l-0.882-0.423-0.889 0.423c-0.711 0.339-0.946 0.423-1.175 0.422-0.408-0.001-0.73-0.201-0.92-0.57l-0.153-0.296 0.292-2.059-0.704-0.72c-0.586-0.6-0.715-0.765-0.773-0.995-0.129-0.515 0.089-0.994 0.552-1.209 0.143-0.066 0.652-0.183 1.132-0.259l0.873-0.138 0.348-0.667c0.521-0.996 0.653-1.189 0.91-1.324zM24.55 9.239c0.208-0.105 0.263-0.099 0.449 0.047 0.163 0.128 0.496 0.769 0.674 1.297 0.089 0.264 0.090 0.311 0.006 0.472-0.106 0.204-0.337 0.287-0.571 0.205-0.171-0.060-0.176-0.068-0.59-0.983-0.26-0.574-0.276-0.637-0.202-0.792 0.044-0.093 0.149-0.203 0.233-0.245zM18.462 9.601c-0.033 0.043-0.275 0.491-0.537 0.994s-0.501 0.932-0.53 0.951c-0.030 0.019-0.537 0.115-1.128 0.213-0.653 0.108-1.086 0.208-1.104 0.254-0.016 0.042 0.326 0.449 0.76 0.905l0.789 0.829-0.162 1.132c-0.117 0.814-0.142 1.139-0.093 1.158 0.038 0.015 0.528-0.193 1.087-0.461l1.018-0.487 1.014 0.485c0.558 0.267 1.040 0.485 1.071 0.485 0.086 0 0.066-0.306-0.087-1.359l-0.141-0.962 0.79-0.825c0.434-0.454 0.777-0.859 0.761-0.901-0.018-0.046-0.452-0.146-1.115-0.256-0.597-0.099-1.112-0.209-1.144-0.244s-0.283-0.488-0.557-1.006c-0.274-0.518-0.528-0.952-0.564-0.964s-0.094 0.013-0.127 0.056zM4.153 21.221c-1.662 1.663-2.996 3.023-2.964 3.023 0.088 0 5.435 0.804 5.453 0.82 0.008 0.008 0.199 1.243 0.425 2.745l0.41 2.731 6.648-6.648-0.699-0.977-1.597-0.028c-0.879-0.016-1.646-0.050-1.706-0.075s-0.136-0.098-0.17-0.161c-0.034-0.063-0.157-0.804-0.273-1.648s-0.226-1.556-0.242-1.582c-0.027-0.045-2.182-1.222-2.236-1.222-0.013 0-1.384 1.36-3.047 3.023zM28.592 18.897c-0.447 0.245-0.839 0.471-0.872 0.503s-0.153 0.746-0.269 1.587c-0.116 0.84-0.228 1.574-0.25 1.631-0.083 0.217-0.276 0.245-1.902 0.279l-1.602 0.034-0.971 1.343 3.278 3.283c1.803 1.806 3.285 3.249 3.293 3.206s0.193-1.27 0.411-2.727c0.218-1.458 0.406-2.66 0.417-2.671 0.024-0.024 5.277-0.815 5.416-0.816 0.050-0-1.282-1.374-2.962-3.054s-3.081-3.051-3.114-3.049c-0.034 0.003-0.427 0.205-0.874 0.45z"></path>
</symbol>
<symbol id="icon-curriculum" viewBox="0 0 32 32">
<path d="M18.84 0.138c0.108-0.042 0.25-0.065 0.315-0.051 0.236 0.049 10.739 4.805 10.855 4.915 0.066 0.063 0.135 0.194 0.155 0.291s0.035 1.827 0.035 3.844v3.667l0.288 0.186c0.295 0.191 0.558 0.539 0.674 0.89 0.102 0.309 0.036 0.911-0.134 1.215l-0.144 0.258 0.446 1.335c0.395 1.181 0.439 1.356 0.387 1.514-0.116 0.353-0.142 0.357-2.109 0.357h-1.778l-0.164-0.164c-0.104-0.104-0.164-0.223-0.164-0.323 0-0.087 0.192-0.734 0.426-1.438l0.426-1.279-0.159-0.324c-0.375-0.764-0.070-1.72 0.67-2.102l0.211-0.109v-3.295c0-2.613-0.015-3.289-0.070-3.268-0.039 0.015-0.621 0.274-1.294 0.576l-1.223 0.549v6.452h-1.125v-2.953c0-1.624-0.020-2.953-0.045-2.953s-1.398 0.611-3.051 1.358c-1.706 0.77-3.079 1.359-3.175 1.36-0.103 0.001-1.355-0.532-3.234-1.378l-3.065-1.38-0.015 1.117-0.015 1.117h-1.066v-2.731l-1.749-0.784c-1.149-0.515-1.786-0.831-1.856-0.92-0.146-0.185-0.137-0.474 0.020-0.651 0.085-0.096 1.817-0.903 5.329-2.483 2.861-1.288 5.291-2.375 5.399-2.417zM14.486 3.292c-2.503 1.128-4.559 2.059-4.57 2.070s2.047 0.949 4.572 2.086l4.592 2.066 4.59-2.065c2.524-1.136 4.594-2.068 4.6-2.072s-0.99-0.458-2.213-1.008l-2.223-1.001-3.125 1.779-0.035 0.329c-0.089 0.838-0.667 1.421-1.474 1.486-0.66 0.053-1.301-0.318-1.578-0.912-0.191-0.409-0.185-0.972 0.012-1.368 0.456-0.914 1.609-1.181 2.45-0.566 0.077 0.057 0.286-0.042 1.278-0.603 0.652-0.369 1.186-0.683 1.187-0.699 0.001-0.028-3.433-1.578-3.485-1.573-0.015 0.002-2.076 0.926-4.579 2.053zM18.704 5.066c-0.080 0.095-0.146 0.232-0.146 0.305s0.066 0.21 0.146 0.305c0.298 0.354 0.867 0.154 0.867-0.305s-0.569-0.659-0.867-0.305zM3.065 11.188c0.062-0.025 4.333-0.041 9.491-0.036l9.378 0.011 4.554 4.558v13.015l-0.328 0.367h-23.121l-0.312-0.312v-8.654c0-8.574 0.001-8.655 0.112-8.779 0.062-0.069 0.163-0.146 0.225-0.171zM3.824 20.134v7.873h21.54v-11.525l-3.878-0.032-0.312-0.312-0.016-1.939-0.016-1.939h-17.317v7.873zM22.271 14.2v1.153h2.333l-1.152-1.153c-0.634-0.634-1.158-1.153-1.166-1.153s-0.015 0.519-0.015 1.153zM0.268 13.943c0.179-0.16 0.198-0.164 0.801-0.164h0.618v1.125h-0.506v15.747h21.54v-0.506h1.125v0.618c0 0.603-0.004 0.622-0.164 0.801l-0.164 0.184-11.479 0.014c-10.193 0.013-11.498 0.005-11.645-0.071-0.361-0.187-0.339 0.441-0.323-9.001l0.015-8.583 0.184-0.164zM5.138 13.834c0.066-0.027 3.467-0.050 7.558-0.052l7.438-0.004v1.125h-3.149v1.012h3.712v3.149h2.587v-1.575h1.069v8.654l-0.271 0.316h-18.972l-0.271-0.316v-6.002c0-6.534-0.017-6.18 0.301-6.309zM29.28 13.983c-0.214 0.214-0.199 0.456 0.049 0.752 0.134 0.161 0.197 0.292 0.197 0.415 0 0.099-0.163 0.666-0.361 1.26l-0.361 1.081h0.811c0.446 0 0.811-0.020 0.811-0.044s-0.165-0.536-0.366-1.137-0.366-1.138-0.366-1.191c0-0.054 0.072-0.181 0.16-0.283 0.237-0.272 0.301-0.424 0.261-0.609-0.082-0.375-0.563-0.515-0.835-0.243zM5.905 15.409v0.506h2.587v-1.012h-2.587v0.506zM9.617 15.409v0.506h2.587v-1.012h-2.587v0.506zM13.329 15.409v0.506h2.587v-1.012h-2.587v0.506zM5.905 18.025v1.040h2.587v-2.081h-2.587v1.040zM9.617 18.025v1.040h2.587v-2.081h-2.587v1.040zM13.329 18.025v1.040h6.243v-2.081h-6.243v1.040zM5.905 21.174v1.040h2.587v-2.081h-2.587v1.040zM9.617 21.174v1.040h2.587v-2.081h-2.587v1.040zM13.329 21.174v1.040h2.587v-2.081h-2.587v1.040zM16.984 21.174v1.040h2.587v-2.081h-2.587v1.040zM20.696 21.174v1.040h2.587v-2.081h-2.587v1.040zM5.905 24.352v1.012h2.587v-2.025h-2.587v1.012zM9.617 24.352v1.012h6.299v-2.025h-6.299v1.012zM16.984 24.352v1.012h2.587v-2.025h-2.587v1.012zM20.696 24.352v1.012h2.587v-2.025h-2.587v1.012z"></path>
</symbol>
<symbol id="icon-academic-excellence" viewBox="0 0 31 32">
<path d="M5.266 0.485l0.089-0.136h8.551c8.277 0 8.555 0.004 8.66 0.109 0.137 0.137 0.473 1.639 0.473 2.117l0 0.16h4.052l0.122 0.131c0.302 0.324 0.457 2.283 0.279 3.533l-0.1 0.705 0.261 0.23c0.144 0.127 0.397 0.442 0.563 0.7 0.263 0.41 0.362 0.509 0.776 0.777 0.865 0.558 1.046 0.866 1.136 1.927 0.051 0.605 0.070 0.674 0.337 1.193 0.277 0.54 0.283 0.56 0.28 1.074-0.002 0.513-0.009 0.536-0.305 1.129-0.256 0.512-0.303 0.656-0.303 0.931-0.001 0.438-0.101 1.028-0.212 1.249-0.136 0.27-0.416 0.543-0.791 0.771-0.184 0.112-0.335 0.226-0.335 0.252s0.421 0.948 0.935 2.047c0.514 1.099 0.949 2.068 0.967 2.154 0.023 0.117-0.007 0.194-0.118 0.305-0.176 0.176-0.244 0.179-1.405 0.066-0.448-0.043-0.832-0.069-0.853-0.056s-0.28 0.37-0.574 0.794c-0.294 0.424-0.577 0.803-0.627 0.843-0.136 0.108-0.444 0.089-0.555-0.034-0.053-0.058-0.487-0.942-0.965-1.964-0.578-1.236-0.895-1.85-0.945-1.835-0.042 0.012-0.277 0.035-0.523 0.051l-0.446 0.029-0.852 1.84c-0.468 1.012-0.894 1.873-0.947 1.913s-0.179 0.073-0.282 0.073c-0.227 0-0.335-0.118-0.984-1.067-0.443-0.648-0.474-0.68-0.64-0.654-0.096 0.015-0.559 0.058-1.029 0.097-0.762 0.063-0.87 0.060-0.996-0.022-0.308-0.202-0.289-0.265 0.714-2.339 0.514-1.063 0.934-1.958 0.934-1.989 0-0.086-0.223-0.268-0.611-0.5-0.391-0.234-0.667-0.501-0.81-0.786-0.113-0.223-0.084-0.235-0.717 0.299l-0.473 0.399 0.111 0.153c0.213 0.294 0.296 1.026 0.168 1.486-0.082 0.294-0.268 0.575-0.472 0.712l-0.162 0.109-0 3.287h1.24c1.417 0 1.628 0.039 2.18 0.408 0.376 0.251 0.702 0.67 0.862 1.105 0.058 0.157 0.108 0.521 0.125 0.908l0.029 0.646 0.487 0.034c0.575 0.041 0.908 0.172 1.2 0.473 0.43 0.442 0.421 0.383 0.439 2.914 0.016 2.228 0.014 2.273-0.104 2.4l-0.121 0.129h-9.045c-8.967 0-9.046-0.001-9.161-0.116-0.112-0.112-0.116-0.194-0.116-2.374v-2.258l0.15-0.301c0.275-0.552 0.726-0.813 1.502-0.867l0.487-0.034 0.024-0.676c0.022-0.609 0.042-0.715 0.206-1.065 0.23-0.492 0.584-0.847 1.095-1.099l0.401-0.198 2.708-0.037v-3.284l-0.174-0.103c-0.278-0.164-0.478-0.565-0.511-1.027-0.038-0.529 0.021-0.881 0.189-1.129l0.138-0.204-0.389-0.314c-0.214-0.173-0.607-0.519-0.873-0.77-0.47-0.443-0.508-0.465-1.284-0.757-4.412-1.662-7.448-5.005-7.973-8.778-0.166-1.195 0.021-3.385 0.305-3.569 0.038-0.024 0.984-0.058 2.104-0.074l2.035-0.029 0.071-0.5c0.106-0.743 0.296-1.566 0.397-1.72zM5.876 1.545c-0.357 1.722-0.38 3.887-0.058 5.638 0.657 3.576 2.575 6.737 5.468 9.012l0.493 0.388 4.309-0.002 0.568-0.456c0.313-0.251 0.741-0.622 0.951-0.824l0.383-0.368-0.071-0.237c-0.039-0.13-0.173-0.44-0.298-0.687-0.428-0.852-0.416-1.245 0.070-2.198 0.219-0.429 0.246-0.53 0.291-1.096 0.085-1.057 0.218-1.291 1.051-1.849 0.514-0.345 0.59-0.42 0.911-0.914 0.22-0.338 0.441-0.601 0.592-0.706 0.265-0.184 0.793-0.318 1.26-0.319l0.299-0.001 0.079-0.596c0.163-1.227 0.095-3.168-0.161-4.596l-0.091-0.509h-15.98l-0.067 0.323zM1.24 3.884c-0.092 0.539-0.053 2.33 0.063 2.864 0.554 2.559 2.263 4.792 4.92 6.428 0.539 0.332 1.576 0.864 1.612 0.828 0.010-0.010-0.219-0.375-0.509-0.811-0.487-0.732-0.566-0.821-1.032-1.158-0.587-0.425-1.509-1.298-1.987-1.882-1.079-1.317-1.733-2.957-1.842-4.616-0.037-0.569-0.035-0.582 0.113-0.731 0.151-0.151 0.153-0.151 1.143-0.151h0.992v-1.047h-3.426l-0.047 0.276zM23.156 4.131v0.524h0.928c1.007 0 1.178 0.038 1.281 0.287 0.062 0.15 0.009 1.070-0.089 1.554-0.036 0.178-0.029 0.186 0.291 0.305 0.184 0.069 0.465 0.123 0.641 0.123h0.313l0.077-0.422c0.086-0.471 0.105-2.044 0.031-2.56l-0.048-0.335h-3.424v0.524zM3.375 5.724c0 0.553 0.346 1.781 0.7 2.483 0.28 0.555 0.855 1.366 1.316 1.857 0.243 0.259 0.451 0.462 0.461 0.452s-0.088-0.305-0.217-0.656c-0.43-1.165-0.682-2.31-0.899-4.085l-0.030-0.247h-1.331v0.197zM23.13 5.6c-0.012 0.040-0.038 0.266-0.057 0.501-0.032 0.394-0.027 0.425 0.068 0.385 0.414-0.173 0.824-0.265 1.040-0.233l0.239 0.035 0.036-0.221c0.020-0.121 0.037-0.293 0.037-0.381l0.001-0.16h-0.671c-0.486 0-0.677 0.020-0.693 0.073zM23.942 7.14c-0.064 0.011-0.397 0.154-0.74 0.316-0.583 0.276-0.664 0.299-1.251 0.344-0.345 0.027-0.658 0.050-0.696 0.051-0.138 0.006-0.418 0.303-0.647 0.686-0.282 0.473-0.448 0.637-1.038 1.027-0.626 0.413-0.65 0.456-0.717 1.279-0.053 0.656-0.071 0.722-0.349 1.311-0.378 0.799-0.378 0.899 0.004 1.707 0.283 0.599 0.3 0.662 0.347 1.298 0.027 0.367 0.079 0.722 0.114 0.788s0.278 0.259 0.54 0.429c0.563 0.366 0.807 0.613 1.166 1.178 0.146 0.231 0.34 0.457 0.43 0.504s0.469 0.111 0.843 0.142c0.642 0.054 0.712 0.073 1.3 0.354 0.342 0.163 0.702 0.297 0.801 0.297s0.461-0.133 0.804-0.295c0.575-0.272 0.676-0.3 1.253-0.352 0.915-0.082 0.969-0.107 1.288-0.596 0.464-0.71 0.586-0.839 1.122-1.177 0.292-0.184 0.555-0.396 0.6-0.483 0.044-0.086 0.106-0.461 0.138-0.834 0.054-0.642 0.073-0.712 0.354-1.3 0.374-0.782 0.377-0.901 0.038-1.564-0.277-0.544-0.345-0.804-0.428-1.645-0.029-0.298-0.089-0.581-0.134-0.635s-0.291-0.235-0.547-0.4c-0.521-0.338-0.83-0.655-1.143-1.177-0.117-0.194-0.276-0.395-0.353-0.446-0.090-0.059-0.378-0.112-0.806-0.147-0.707-0.058-0.999-0.138-1.422-0.385-0.305-0.179-0.705-0.305-0.873-0.275zM23.564 8.761c0.080-0.014 0.381-0.015 0.669-0.003 2.108 0.089 3.826 1.699 4.038 3.785 0.201 1.985-0.986 3.837-2.874 4.481-0.653 0.223-1.664 0.264-2.334 0.094-1.275-0.322-2.283-1.139-2.844-2.306-0.737-1.532-0.45-3.437 0.707-4.686 0.703-0.76 1.492-1.168 2.637-1.366zM23.796 9.638c-0.84 0.126-1.284 0.302-1.843 0.729-0.519 0.397-0.979 1.104-1.154 1.775-0.113 0.435-0.111 1.275 0.005 1.726 0.261 1.012 1.037 1.857 2.088 2.276 0.529 0.211 1.39 0.267 1.934 0.127 0.929-0.239 1.836-0.947 2.218-1.73 0.596-1.224 0.462-2.554-0.366-3.647-0.479-0.633-1.2-1.061-2.039-1.21-0.461-0.082-0.562-0.088-0.844-0.045zM25.413 11.269c-0.055 0.014-0.443 0.456-0.864 0.982s-0.778 0.956-0.794 0.956-0.281-0.185-0.587-0.411c-0.458-0.338-0.584-0.404-0.707-0.374-0.24 0.060-0.353 0.199-0.353 0.437 0 0.208 0.028 0.238 0.726 0.777 0.827 0.64 0.965 0.71 1.173 0.604 0.079-0.040 0.561-0.597 1.071-1.237 1.021-1.281 1.082-1.412 0.774-1.654-0.15-0.118-0.239-0.134-0.441-0.081zM11.655 17.513c-0.183 0.074-0.251 0.238-0.251 0.609 0 0.269 0.025 0.352 0.143 0.469l0.143 0.143h2.236c2.673 0 2.497 0.048 2.47-0.668-0.016-0.428-0.029-0.47-0.163-0.537-0.172-0.087-4.366-0.102-4.578-0.017zM28.102 18.133c0 0.113-0.477 0.605-0.693 0.716-0.259 0.132-0.446 0.168-1.186 0.23-0.314 0.026-0.598 0.075-0.632 0.109-0.044 0.044 0.142 0.5 0.629 1.549 0.38 0.818 0.705 1.488 0.724 1.488s0.225-0.274 0.459-0.611c0.286-0.41 0.473-0.624 0.567-0.647 0.077-0.019 0.457-0.005 0.843 0.031s0.708 0.060 0.715 0.051c0.020-0.025-1.311-2.86-1.372-2.922-0.034-0.035-0.054-0.032-0.054 0.006zM19.78 19.295c-0.636 1.314-0.823 1.718-0.802 1.735 0.010 0.009 0.35-0.011 0.754-0.043s0.775-0.043 0.823-0.025c0.048 0.018 0.28 0.31 0.515 0.648s0.442 0.615 0.459 0.615c0.032 0.001 1.338-2.791 1.337-2.857-0.002-0.114-0.63-0.289-1.206-0.335-0.697-0.056-1.003-0.158-1.277-0.423l-0.184-0.178-0.419 0.865zM12.102 21.178v1.571h3.665v-3.142h-3.665v1.571zM8.619 23.701c-0.281 0.102-0.63 0.414-0.777 0.695-0.099 0.19-0.132 0.373-0.151 0.84l-0.024 0.596h12.538l-0.029-0.567c-0.043-0.859-0.248-1.229-0.831-1.505l-0.291-0.137-5.12 0.004c-3.868 0.003-5.168 0.021-5.316 0.075zM5.725 26.961l-0.198 0.198v3.735h16.819l-0.017-1.896-0.017-1.896-0.38-0.339h-16.010l-0.198 0.198z"></path>
</symbol>
<symbol id="icon-secured-environment" viewBox="0 0 38 32">
<path d="M18.043 0.311c-0.54 0.25-17.46 13.376-17.608 13.66-0.49 0.94-0.123 2.056 0.828 2.517 0.33 0.16 0.497 0.172 2.309 0.172h1.953v6.725c0 6.448 0.006 6.738 0.157 7.031 0.182 0.355 0.435 0.603 0.808 0.791 0.24 0.121 1.381 0.133 12.338 0.133h12.074l0.364-0.192c0.239-0.126 0.448-0.329 0.611-0.591l0.247-0.399 0.044-13.487 4.011-0.052 0.405-0.25c0.552-0.342 0.775-0.751 0.776-1.429 0.002-0.962-0.059-1.029-3.099-3.354l-2.673-2.045v-6.794l-0.188-0.279c-0.304-0.45-0.464-0.494-1.721-0.469-1.716 0.035-1.72 0.041-1.72 2.822v1.938l-4.062-3.15c-2.234-1.733-4.19-3.216-4.347-3.296-0.367-0.188-1.1-0.188-1.506 0zM17.753 8.782c-1.302 0.366-2.346 1.378-2.742 2.658-0.133 0.431-0.166 0.768-0.166 1.712v1.176l-0.422 0.050c-0.85 0.101-1.651 0.685-2.054 1.499l-0.204 0.412v3.423c0 3.419 0 3.423 0.194 3.853 0.23 0.51 0.842 1.11 1.392 1.366 0.39 0.182 0.415 0.183 4.97 0.183 4.227 0 4.611-0.012 5.011-0.151 0.577-0.201 1.258-0.828 1.514-1.393l0.196-0.435v-6.845l-0.283-0.522c-0.433-0.799-1.131-1.289-1.976-1.39l-0.422-0.050v-1.176c0-0.95-0.032-1.28-0.168-1.72-0.34-1.1-1.291-2.118-2.362-2.527-0.622-0.238-1.855-0.299-2.48-0.123zM18.336 10.147c-0.79 0.158-1.412 0.641-1.775 1.379-0.258 0.524-0.271 0.597-0.301 1.686l-0.031 1.138h5.151l-0.031-1.138c-0.030-1.089-0.043-1.162-0.301-1.686-0.504-1.023-1.629-1.596-2.711-1.379zM14.305 15.867c-0.332 0.146-0.678 0.567-0.739 0.898-0.027 0.146-0.038 1.583-0.024 3.194 0.025 2.915 0.026 2.929 0.217 3.197 0.41 0.575 0.235 0.555 5.045 0.555s4.635 0.019 5.045-0.555l0.192-0.269v-3.149c0-3.051-0.005-3.156-0.17-3.376-0.094-0.125-0.273-0.304-0.398-0.398-0.222-0.166-0.328-0.17-4.572-0.189-3.486-0.015-4.394 0.003-4.596 0.092zM20.495 17.813c-0.091 0.039-0.627 0.536-1.192 1.106l-1.027 1.036-0.633-0.616c-0.535-0.521-0.676-0.616-0.913-0.616-0.561 0-0.901 0.456-0.697 0.932 0.062 0.145 0.52 0.663 1.018 1.151 0.865 0.848 0.92 0.887 1.257 0.887 0.345 0 0.382-0.029 1.699-1.331 1.414-1.398 1.657-1.729 1.526-2.074-0.163-0.428-0.636-0.644-1.038-0.473z"></path>
</symbol>
<symbol id="icon-classroom" viewBox="0 0 42 32">
<path d="M0.35 0.262c0.091-0.11 1.612-0.119 20.529-0.119s20.438 0.009 20.529 0.119c0.083 0.1 0.098 2.066 0.098 12.204v12.085l-0.169 0.137c-0.156 0.127-0.303 0.137-1.883 0.137h-1.714v4.090h0.261c0.944 0 1.699 0.799 1.582 1.674-0.056 0.42-0.392 0.906-0.76 1.101l-0.316 0.167-36.031-0.002-0.28-0.16c-0.154-0.088-0.379-0.283-0.5-0.433-0.187-0.232-0.224-0.346-0.246-0.753-0.034-0.63 0.166-1.031 0.667-1.341 0.346-0.214 0.352-0.215 1.591-0.239 0.684-0.013 1.243-0.029 1.242-0.036s-0.048-0.141-0.104-0.299c-0.138-0.382-0.136-1.009 0.004-1.42 0.186-0.546 0.945-1.192 1.407-1.198 0.112-0.001 0.111-0.025-0.012-0.306-0.074-0.168-0.156-0.426-0.183-0.574l-0.050-0.269h-2.711c-2.562 0-2.72-0.008-2.88-0.137l-0.169-0.137v-12.085c0-10.138 0.016-12.104 0.098-12.204zM1.148 12.448v11.444l5.202-0.010-0.445-0.127c-0.772-0.221-1.309-0.77-1.459-1.489-0.189-0.912 0.31-1.85 1.178-2.213 0.215-0.090 0.848-0.107 3.984-0.107h3.729l0.112 0.16c0.161 0.229 0.141 0.338-0.13 0.719-0.44 0.619-0.496 1.174-0.181 1.791l0.139 0.272 0.734 0.001c0.818 0.001 1.054 0.078 1.159 0.377 0.056 0.159 0.039 0.236-0.091 0.411l-0.159 0.216h14.107l0.081-0.215c0.046-0.122 0.163-0.246 0.272-0.287 0.105-0.040 0.657-0.072 1.226-0.072h1.036v-1.921c0-1.623 0.017-1.946 0.112-2.081 0.108-0.154 0.154-0.16 1.291-0.16h1.18v-0.666c0-1.037-0.093-0.985 1.758-0.985 1.504 0 1.537 0.003 1.646 0.16 0.097 0.138 0.112 0.564 0.112 3.193v3.033h2.87v-22.888h-39.462v11.444zM12.305 4.222c0.218-0.104 0.41-0.132 0.803-0.116 0.438 0.018 0.562 0.054 0.823 0.237 0.464 0.326 0.723 0.739 0.763 1.215 0.065 0.779-0.295 1.44-0.957 1.761-0.266 0.129-0.414 0.152-0.807 0.126-0.265-0.018-0.524-0.046-0.575-0.062-0.061-0.019-0.517 0.7-1.274 2.009-0.649 1.121-1.179 2.062-1.179 2.090s0.054 0.096 0.119 0.15c0.341 0.281 0.51 1.233 0.306 1.724-0.056 0.134-0.067 0.24-0.027 0.254 0.037 0.013 0.502 0.295 1.033 0.627l0.965 0.603 0.219-0.185c0.336-0.283 0.756-0.447 1.154-0.448l0.361-0.002 0.518-1.278c0.285-0.703 0.518-1.302 0.518-1.332s-0.080-0.159-0.178-0.288c-0.374-0.49-0.48-1.079-0.291-1.615 0.552-1.565 2.782-1.525 3.244 0.059 0.306 1.048-0.387 2.042-1.498 2.151l-0.428 0.042-1.091 2.688 0.149 0.163c0.964 1.054 0.18 2.782-1.263 2.782-0.5 0-0.795-0.103-1.146-0.399-0.3-0.253-0.579-0.833-0.584-1.216l-0.004-0.287-1.192-0.731c-1.19-0.731-1.192-0.731-1.407-0.62-0.288 0.149-0.946 0.143-1.324-0.011-0.168-0.069-0.429-0.265-0.579-0.435-0.496-0.564-0.58-1.262-0.23-1.927l0.212-0.403-0.962-2.796-0.26-0.001c-1.273-0.002-2.099-1.351-1.528-2.495 0.612-1.229 2.391-1.229 3.003 0 0.311 0.625 0.233 1.311-0.217 1.901l-0.182 0.239 0.433 1.241c0.238 0.682 0.451 1.287 0.472 1.343 0.029 0.077 0.145 0.097 0.459 0.079l0.42-0.024 2.474-4.295-0.115-0.288c-0.146-0.365-0.148-1-0.004-1.345 0.146-0.35 0.501-0.717 0.857-0.888zM12.651 5.063c-0.225 0.114-0.454 0.474-0.454 0.713 0 0.254 0.231 0.601 0.479 0.719 0.795 0.377 1.536-0.639 0.917-1.258-0.269-0.269-0.626-0.335-0.942-0.174zM5.666 6.448c-0.235 0.235-0.322 0.499-0.253 0.772 0.026 0.104 0.14 0.281 0.253 0.395 0.168 0.168 0.268 0.206 0.54 0.206s0.372-0.038 0.54-0.206c0.369-0.369 0.369-0.798 0-1.166-0.295-0.295-0.785-0.295-1.080 0zM24.698 6.675c-0.089 0.036-0.196 0.154-0.237 0.261-0.060 0.158-0.048 0.23 0.063 0.379l0.137 0.183 6.121 0.018c5.392 0.016 6.141 0.005 6.288-0.091 0.193-0.127 0.224-0.432 0.066-0.649-0.099-0.136-0.255-0.14-6.188-0.153-3.568-0.008-6.154 0.013-6.249 0.052zM22.562 8.858c-0.097 0.097-0.176 0.227-0.176 0.29s0.079 0.193 0.176 0.29l0.176 0.176h7.106c7.011 0 7.108-0.002 7.25-0.143 0.195-0.195 0.187-0.535-0.016-0.678-0.142-0.099-0.949-0.112-7.25-0.112h-7.090l-0.176 0.176zM15.884 9.502c-0.31 0.135-0.458 0.375-0.458 0.743 0 0.505 0.492 0.894 0.978 0.772 0.104-0.026 0.281-0.14 0.395-0.253 0.164-0.164 0.206-0.27 0.206-0.519 0-0.375-0.15-0.611-0.473-0.747-0.291-0.122-0.361-0.121-0.647 0.003zM22.534 10.951c-0.184 0.234-0.186 0.323-0.012 0.538l0.137 0.169 7.020 0.020c3.861 0.011 7.090 0.003 7.176-0.018 0.386-0.094 0.522-0.577 0.222-0.787-0.142-0.099-0.951-0.112-7.277-0.112h-7.118l-0.149 0.189zM8.418 12.014c-0.597 0.262-0.654 1.097-0.096 1.427 0.546 0.322 1.221-0.086 1.221-0.739 0-0.278-0.379-0.694-0.682-0.749-0.118-0.021-0.318 0.006-0.443 0.061zM22.591 12.916c-0.18 0.105-0.23 0.417-0.099 0.616l0.113 0.172h7.198c6.882 0 7.203-0.006 7.317-0.131 0.157-0.173 0.151-0.463-0.012-0.611-0.12-0.109-0.726-0.119-7.265-0.117-4.407 0.001-7.178 0.028-7.251 0.071zM22.562 15.028c-0.097 0.097-0.176 0.227-0.176 0.29s0.079 0.193 0.176 0.29l0.176 0.176h7.106c7.011 0 7.108-0.002 7.25-0.143 0.195-0.195 0.187-0.535-0.016-0.678-0.142-0.099-0.949-0.112-7.25-0.112h-7.090l-0.176 0.176zM13.372 15.17c-0.727 0.316-0.563 1.423 0.224 1.519 0.894 0.11 1.254-1.119 0.441-1.505-0.295-0.14-0.372-0.142-0.665-0.014zM35.157 18.691v0.323h1.65v-0.646h-1.65v0.323zM35.157 24.395v4.52h1.65v-9.040h-1.65v4.52zM32.574 20.377v0.359h1.65v-0.718h-1.65v0.359zM5.885 20.933c-0.394 0.198-0.594 0.553-0.559 0.991 0.032 0.394 0.192 0.668 0.497 0.85 0.166 0.099 0.591 0.114 3.31 0.114h3.12l-0.096-0.269c-0.126-0.354-0.122-1.128 0.007-1.489 0.057-0.158 0.104-0.295 0.104-0.305s-1.379-0.018-3.066-0.018c-2.777 0-3.091 0.012-3.317 0.126zM32.574 25.291v3.623h1.65v-7.247h-1.65v3.623zM7.535 23.946c-0.681 0.342-0.769 1.191-0.182 1.74l0.192 0.179 6.369 0.040-0.105-0.298c-0.146-0.414-0.14-1.381 0.011-1.61l0.116-0.177-3.076 0c-2.785 0-3.099 0.012-3.325 0.126zM29.991 24.718v0.466h1.65v-0.933h-1.65v0.466zM14.565 24.915c0.001 0.224 0.161 0.624 0.393 0.984 0.297 0.461 0.309 0.57 0.087 0.779-0.145 0.136-0.248 0.156-0.811 0.156h-0.645l-0.158 0.325c-0.211 0.434-0.211 0.998 0 1.431l0.158 0.325h4.048l0.024-0.759c0.021-0.652 0.044-0.774 0.164-0.861 0.114-0.084 0.624-0.102 2.852-0.102 3.265 0 3-0.089 3 1.004v0.718h5.381v-4.090h-7.247c-5.75 0-7.247 0.018-7.246 0.090zM29.991 27.516v1.399h1.65v-2.798h-1.65v1.399zM6.091 26.997c-0.281 0.188-0.495 0.567-0.495 0.878s0.214 0.69 0.495 0.878l0.244 0.163h3.11c1.711 0 3.11-0.008 3.11-0.018s-0.049-0.176-0.108-0.37c-0.059-0.194-0.107-0.487-0.107-0.652s0.048-0.459 0.107-0.652c0.059-0.194 0.107-0.36 0.108-0.37s-1.399-0.018-3.11-0.018h-3.11l-0.244 0.163zM18.583 28.484v0.43h4.161v-0.861h-4.161v0.43zM2.472 30.024c-0.274 0.274-0.192 0.733 0.158 0.892 0.127 0.058 5.071 0.080 17.933 0.080h17.758l0.176-0.176c0.233-0.233 0.238-0.602 0.010-0.816l-0.166-0.156h-35.692l-0.176 0.176z"></path>
</symbol>
<symbol id="icon-x" viewBox="0 0 32 32">
<path d="M24.325 3h4.411l-9.636 11.013 11.336 14.987h-8.876l-6.952-9.089-7.955 9.089h-4.413l10.307-11.78-10.875-14.22h9.101l6.284 8.308zM22.777 26.36h2.444l-15.776-20.859h-2.623z"></path>
</symbol>
<symbol id="icon-youtube-play" viewBox="0 0 28 28">
<path d="M11.109 17.625l7.562-3.906-7.562-3.953v7.859zM14 4.156c5.891 0 9.797 0.281 9.797 0.281 0.547 0.063 1.75 0.063 2.812 1.188 0 0 0.859 0.844 1.109 2.781 0.297 2.266 0.281 4.531 0.281 4.531v2.125s0.016 2.266-0.281 4.531c-0.25 1.922-1.109 2.781-1.109 2.781-1.062 1.109-2.266 1.109-2.812 1.172 0 0-3.906 0.297-9.797 0.297v0c-7.281-0.063-9.516-0.281-9.516-0.281-0.625-0.109-2.031-0.078-3.094-1.188 0 0-0.859-0.859-1.109-2.781-0.297-2.266-0.281-4.531-0.281-4.531v-2.125s-0.016-2.266 0.281-4.531c0.25-1.937 1.109-2.781 1.109-2.781 1.062-1.125 2.266-1.125 2.812-1.188 0 0 3.906-0.281 9.797-0.281v0z"></path>
</symbol>
<symbol id="icon-linkedin" viewBox="0 0 24 28">
<path d="M5.453 9.766v15.484h-5.156v-15.484h5.156zM5.781 4.984c0.016 1.484-1.109 2.672-2.906 2.672v0h-0.031c-1.734 0-2.844-1.188-2.844-2.672 0-1.516 1.156-2.672 2.906-2.672 1.766 0 2.859 1.156 2.875 2.672zM24 16.375v8.875h-5.141v-8.281c0-2.078-0.75-3.5-2.609-3.5-1.422 0-2.266 0.953-2.641 1.875-0.125 0.344-0.172 0.797-0.172 1.266v8.641h-5.141c0.063-14.031 0-15.484 0-15.484h5.141v2.25h-0.031c0.672-1.062 1.891-2.609 4.672-2.609 3.391 0 5.922 2.219 5.922 6.969z"></path>
</symbol>
<symbol id="icon-facebook" viewBox="0 0 16 28">
<path d="M14.984 0.187v4.125h-2.453c-1.922 0-2.281 0.922-2.281 2.25v2.953h4.578l-0.609 4.625h-3.969v11.859h-4.781v-11.859h-3.984v-4.625h3.984v-3.406c0-3.953 2.422-6.109 5.953-6.109 1.687 0 3.141 0.125 3.563 0.187z"></path>
</symbol>
<symbol id="icon-cheveron-down" viewBox="0 0 20 20">
<path d="M9.293 12.95l0.707 0.707 5.657-5.657-1.414-1.414-4.243 4.242-4.243-4.242-1.414 1.414z"></path>
</symbol>
<symbol id="icon-cheveron-left" viewBox="0 0 20 20">
<path d="M7.050 9.293l-0.707 0.707 5.657 5.657 1.414-1.414-4.242-4.243 4.242-4.243-1.414-1.414z"></path>
</symbol>
<symbol id="icon-cheveron-right" viewBox="0 0 20 20">
<path d="M12.95 10.707l0.707-0.707-5.657-5.657-1.414 1.414 4.242 4.243-4.242 4.243 1.414 1.414 4.95-4.95z"></path>
</symbol>
</defs>
</svg>
